Coordinates
version=1
nRows=19
nColumns=63
inDegrees=yes

Units are S.I. units (second, meters, Newtons, ...)
If the header above contains a line with 'inDegrees', this indicates whether rotational values are in degrees (yes) or radians (no).

endheader
time	pelvis_tilt	pelvis_list	pelvis_rotation	pelvis_tx	pelvis_ty	pelvis_tz	hip_flexion_r	hip_adduction_r	hip_rotation_r	knee_angle_r	knee_angle_r_beta	ankle_angle_r	subtalar_angle_r	mtp_angle_r	hip_flexion_l	hip_adduction_l	hip_rotation_l	knee_angle_l	knee_angle_l_beta	ankle_angle_l	subtalar_angle_l	mtp_angle_l	L5_S1_Flex_Ext	L5_S1_Lat_Bending	L5_S1_axial_rotation	L4_L5_Flex_Ext	L4_L5_Lat_Bending	L4_L5_axial_rotation	L3_L4_Flex_Ext	L3_L4_Lat_Bending	L3_L4_axial_rotation	L2_L3_Flex_Ext	L2_L3_Lat_Bending	L2_L3_axial_rotation	L1_L2_Flex_Ext	L1_L2_Lat_Bending	L1_L2_axial_rotation	L1_T12_Flex_Ext	L1_T12_Lat_Bending	L1_T12_axial_rotation	Abs_r3	Abs_r2	Abs_r1	Abs_t1	Abs_t2	neck_flexion	neck_bending	neck_rotation	arm_flex_r	arm_add_r	arm_rot_r	elbow_flex_r	pro_sup_r	wrist_flex_r	wrist_dev_r	arm_flex_l	arm_add_l	arm_rot_l	elbow_flex_l	pro_sup_l	wrist_flex_l	wrist_dev_l
2.105263	-3.240771	-3.777821	88.053126	0.241790	0.925091	0.602168	7.286724	-6.553815	-4.352532	19.042869	0.332361	39.674083	3.210307	0.000000	4.523808	6.311354	8.768245	11.207578	0.195609	36.795780	-9.292003	0.000000	0.286376	1.037392	-2.544935	0.531828	1.379731	-2.703993	0.470487	2.522315	-2.703993	0.327299	2.522315	-2.226818	0.265928	2.115449	-2.067760	0.163635	1.606920	-1.908701	2.045553	11.735184	-14.154164	0.000000	0.000000	24.083018	-3.008931	9.602506	22.502849	-17.261004	2.624921	45.910745	78.890801	-14.510544	4.923056	17.475254	-7.292252	12.339538	53.226857	88.182402	-19.425277	5.028581
2.122807	-3.324685	-3.372561	88.040560	0.241672	0.926345	0.600405	6.674256	-6.595061	-3.979398	18.881440	0.329543	39.400548	2.567213	0.000000	3.892830	6.410204	8.741034	11.073304	0.193266	36.557064	-9.121592	0.000000	0.289848	1.054802	-2.546055	0.538277	1.402886	-2.705183	0.476192	2.564645	-2.705183	0.331267	2.564645	-2.227798	0.269153	2.150951	-2.068670	0.165619	1.633888	-1.909541	2.070356	11.932127	-14.160393	0.000000	0.000000	23.368875	-3.556000	9.093613	22.162388	-17.759211	0.932200	47.296481	78.371681	-13.917271	4.409909	17.025491	-7.719361	10.916092	55.394020	87.973998	-19.180539	6.112448
2.140351	-3.418777	-2.962831	88.015324	0.241594	0.927581	0.598666	6.045536	-6.645087	-3.592367	18.688764	0.326180	39.128971	1.954260	0.000000	3.235158	6.519283	8.752674	10.890737	0.190079	36.272676	-9.016510	0.000000	0.291771	1.068938	-2.558264	0.541848	1.421687	-2.718156	0.479351	2.599016	-2.718156	0.333465	2.599016	-2.238481	0.270939	2.179778	-2.078590	0.166718	1.655785	-1.918698	2.084091	12.092039	-14.228299	0.000000	0.000000	22.646270	-3.908420	8.641523	21.788003	-18.190365	-0.642474	48.689671	77.992130	-13.195714	3.642602	16.462731	-8.185553	9.504803	57.657282	87.861157	-18.891296	7.264879
2.157895	-3.521814	-2.577005	87.966687	0.241574	0.928760	0.597002	5.442420	-6.700813	-3.178622	18.474969	0.322449	38.874722	1.366323	0.000000	2.578085	6.636852	8.815577	10.647302	0.185830	35.929358	-9.016585	0.000000	0.294895	1.079917	-2.584336	0.547650	1.436290	-2.745857	0.484483	2.625710	-2.745857	0.337036	2.625710	-2.261294	0.273840	2.202167	-2.099773	0.168503	1.672791	-1.938252	2.106407	12.216237	-14.373304	0.000000	0.000000	21.929768	-4.060043	8.273263	21.404754	-18.545804	-2.016096	50.050809	77.516269	-12.352032	2.562486	15.798523	-8.672396	8.085059	60.018203	87.648188	-18.508876	8.631698
2.175439	-3.606262	-2.195120	87.928321	0.241563	0.929922	0.595480	4.848867	-6.742120	-2.786012	18.254150	0.318595	38.639048	0.826195	0.000000	1.920274	6.734517	8.890610	10.379769	0.181161	35.551287	-9.059573	0.000000	0.294032	1.090734	-2.625383	0.546046	1.450676	-2.789470	0.483064	2.652010	-2.789470	0.336049	2.652010	-2.297210	0.273038	2.224224	-2.133124	0.168010	1.689547	-1.969037	2.100238	12.338599	-14.601593	0.000000	0.000000	21.196489	-3.987555	8.078078	21.000882	-18.837718	-3.290012	51.450605	77.254601	-11.527373	1.452883	15.082530	-9.186158	6.753773	62.410047	87.452959	-18.087928	10.085847
2.192982	-3.674472	-1.849173	87.877568	0.241575	0.931002	0.594166	4.319874	-6.771102	-2.411067	18.044558	0.314937	38.459914	0.358342	0.000000	1.297965	6.813869	8.965142	10.081087	0.175948	35.149353	-9.159629	0.000000	0.291908	1.101460	-2.674714	0.542103	1.464942	-2.841883	0.479576	2.678089	-2.841883	0.333622	2.678089	-2.340374	0.271066	2.246097	-2.173205	0.166796	1.706161	-2.006035	2.085072	12.459934	-14.875954	0.000000	0.000000	20.483213	-3.723895	8.061517	20.621337	-19.066292	-4.422923	52.832471	77.087376	-10.685614	0.269597	14.327502	-9.694410	5.476131	64.825269	87.108300	-17.609341	11.724119
2.210526	-3.731657	-1.552689	87.811368	0.241597	0.931958	0.593125	3.885764	-6.792048	-2.024850	17.865307	0.311808	38.356252	-0.046234	0.000000	0.733620	6.882934	9.052397	9.758628	0.170320	34.733055	-9.341775	0.000000	0.288813	1.111603	-2.728654	0.536354	1.478433	-2.899195	0.474490	2.702753	-2.899195	0.330084	2.702753	-2.387573	0.268191	2.266782	-2.217032	0.165028	1.721874	-2.046491	2.062959	12.574681	-15.175957	0.000000	0.000000	19.832831	-3.279930	8.244019	20.308250	-19.228044	-5.413703	54.149595	76.924816	-9.796073	-1.017039	13.547689	-10.172255	4.199723	67.227355	86.584847	-17.043673	13.452857
2.228070	-3.750659	-1.273808	87.741460	0.241627	0.932822	0.592356	3.516629	-6.786104	-1.692911	17.736325	0.309557	38.316949	-0.316136	0.000000	0.205087	6.913081	9.155883	9.445312	0.164852	34.333722	-9.589525	0.000000	0.279769	1.123471	-2.781885	0.519559	1.494217	-2.955753	0.459633	2.731608	-2.955753	0.319748	2.731608	-2.434150	0.259794	2.290982	-2.260282	0.159860	1.740257	-2.086414	1.998362	12.708931	-15.472012	0.000000	0.000000	19.227911	-2.723632	8.570379	20.062908	-19.379300	-6.218443	55.429999	76.788191	-9.070466	-2.353985	12.791307	-10.647583	3.022832	69.580344	85.851461	-16.512396	15.140482
2.245614	-3.740881	-1.047087	87.675485	0.241625	0.933528	0.591858	3.239128	-6.754665	-1.358865	17.641478	0.307902	38.327368	-0.519384	0.000000	-0.248175	6.913013	9.230459	9.143188	0.159579	33.987773	-9.825023	0.000000	0.270109	1.137009	-2.838453	0.501619	1.512222	-3.015856	0.443762	2.764523	-3.015856	0.308707	2.764523	-2.483646	0.250823	2.318588	-2.306243	0.154340	1.761227	-2.128840	1.929361	12.862071	-15.786624	0.000000	0.000000	18.736876	-2.070254	9.044865	19.901812	-19.462863	-6.971287	56.651857	76.680453	-8.314108	-3.732565	12.002329	-11.041584	1.657425	71.913568	85.002781	-15.832166	16.786274
2.263158	-3.726330	-0.855588	87.599209	0.241645	0.934071	0.591616	3.048739	-6.722021	-1.018969	17.615160	0.307443	38.398205	-0.642895	0.000000	-0.638743	6.908356	9.312533	8.866442	0.154749	33.682798	-10.111122	0.000000	0.258969	1.149033	-2.894124	0.480932	1.528214	-3.075007	0.425461	2.793759	-3.075007	0.295976	2.793759	-2.532359	0.240479	2.343108	-2.351476	0.147975	1.779852	-2.170593	1.849792	12.998093	-16.096251	0.000000	0.000000	18.358485	-1.329840	9.658000	19.830133	-19.442457	-7.698962	57.777570	76.536625	-7.515664	-5.213239	11.207726	-11.381783	0.181384	74.202074	84.061952	-15.095761	18.252113
2.280702	-3.704264	-0.709154	87.534587	0.241683	0.934461	0.591602	2.946783	-6.674421	-0.640671	17.658149	0.308193	38.485115	-0.789488	0.000000	-0.952766	6.888799	9.348040	8.624393	0.150524	33.424664	-10.338699	0.000000	0.249944	1.159257	-2.952248	0.464170	1.541811	-3.136764	0.410632	2.818616	-3.136764	0.285660	2.818616	-2.583217	0.232098	2.363956	-2.398702	0.142818	1.795688	-2.214186	1.785322	13.113742	-16.419520	0.000000	0.000000	18.088735	-0.629351	10.220549	19.848177	-19.297057	-8.386819	58.773878	76.046780	-6.633136	-6.897152	10.394861	-11.625267	-1.523139	76.456182	83.114564	-14.205851	19.616974
2.298246	-3.663732	-0.596828	87.473654	0.241748	0.934736	0.591788	2.899746	-6.606452	-0.265865	17.729113	0.309431	38.578741	-0.896734	0.000000	-1.202476	6.845643	9.359619	8.415079	0.146871	33.199286	-10.554007	0.000000	0.242364	1.168709	-3.008249	0.450094	1.554383	-3.196265	0.398179	2.841599	-3.196265	0.276998	2.841599	-2.632218	0.225059	2.383232	-2.444202	0.138487	1.810330	-2.256187	1.731180	13.220672	-16.730979	0.000000	0.000000	17.880875	0.027798	10.703343	19.945071	-19.085920	-9.011942	59.614975	75.253121	-5.662603	-8.792969	9.608712	-11.836808	-3.296276	78.632724	82.148878	-13.242524	20.877194
2.315789	-3.623755	-0.517294	87.384765	0.241872	0.934929	0.592126	2.926163	-6.532480	0.140892	17.864160	0.311788	38.658432	-1.011220	0.000000	-1.395667	6.799953	9.353113	8.221298	0.143489	32.981207	-10.787242	0.000000	0.237624	1.176170	-3.057294	0.441291	1.564306	-3.248375	0.390392	2.859739	-3.248375	0.271580	2.859739	-2.675133	0.220657	2.398445	-2.484052	0.135778	1.821887	-2.292971	1.697322	13.305068	-17.003755	0.000000	0.000000	17.661595	0.559433	11.083042	20.118287	-18.797177	-9.486163	60.311963	73.706975	-4.631461	-10.940484	8.876855	-11.981330	-5.158980	80.675642	80.995039	-12.062664	22.084377
2.333333	-3.595335	-0.479020	87.316302	0.242003	0.935064	0.592580	3.015437	-6.470073	0.503257	18.044429	0.314935	38.718352	-1.125708	0.000000	-1.521285	6.760537	9.355129	8.043536	0.140386	32.770412	-11.003188	0.000000	0.237919	1.180774	-3.105251	0.441839	1.570430	-3.299330	0.390877	2.870934	-3.299330	0.271918	2.870934	-2.717095	0.220932	2.407835	-2.523017	0.135947	1.829019	-2.328938	1.699431	13.357154	-17.270476	0.000000	0.000000	17.424025	0.895145	11.343001	20.364812	-18.380400	-9.990234	60.891250	72.140446	-3.561325	-13.225477	8.236641	-12.093294	-6.982957	82.575425	79.986710	-10.917503	23.217889
2.350877	-3.587766	-0.489242	87.272829	0.242125	0.935135	0.593181	3.184000	-6.423211	0.863294	18.279331	0.319035	38.753231	-1.323675	0.000000	-1.559611	6.741336	9.402020	7.894127	0.137779	32.565117	-11.245204	0.000000	0.242430	1.181631	-3.147784	0.450216	1.571569	-3.344520	0.398288	2.873018	-3.344520	0.277073	2.873018	-2.754311	0.225120	2.409582	-2.557574	0.138524	1.830347	-2.360838	1.731651	13.366848	-17.507028	0.000000	0.000000	17.185619	0.998652	11.453094	20.664982	-17.832304	-10.636538	61.444630	70.919663	-2.482847	-15.390032	7.750547	-12.201269	-8.652193	84.306227	79.261884	-10.004260	24.170751
2.368421	-3.612166	-0.534564	87.249283	0.242257	0.935167	0.593836	3.411358	-6.409285	1.178804	18.562267	0.323973	38.776377	-1.554027	0.000000	-1.533235	6.753592	9.496463	7.761120	0.135457	32.374260	-11.510073	0.000000	0.248818	1.177276	-3.187275	0.462080	1.565777	-3.386480	0.408783	2.862428	-3.386480	0.284374	2.862428	-2.788866	0.231053	2.400701	-2.589661	0.142175	1.823600	-2.390456	1.777284	13.317578	-17.726667	0.000000	0.000000	16.931884	0.953532	11.558924	21.007183	-17.194214	-11.342355	62.024227	70.053157	-1.419277	-17.420112	7.429755	-12.271615	-10.276499	85.951001	78.868437	-9.101624	25.263058
2.385965	-3.666012	-0.623459	87.267686	0.242348	0.935147	0.594574	3.698187	-6.428538	1.433106	18.878091	0.329485	38.788086	-1.826403	0.000000	-1.426923	6.795432	9.635025	7.649894	0.133516	32.219380	-11.750315	0.000000	0.256638	1.167997	-3.223017	0.476602	1.553436	-3.424455	0.421630	2.839867	-3.424455	0.293311	2.839867	-2.820140	0.238314	2.381779	-2.618701	0.146643	1.809227	-2.417263	1.833138	13.212612	-17.925452	0.000000	0.000000	16.738532	0.773823	11.666597	21.357427	-16.495442	-12.144053	62.759176	69.627845	-0.432732	-19.121608	7.313453	-12.332216	-11.728343	87.465292	78.842313	-8.575119	26.113778
2.403509	-3.742893	-0.748025	87.341547	0.242363	0.935084	0.595365	4.025946	-6.479456	1.598266	19.214449	0.335355	38.795490	-2.111270	0.000000	-1.250047	6.862310	9.825402	7.563448	0.132007	32.120910	-11.948586	0.000000	0.264431	1.153599	-3.257741	0.491076	1.534287	-3.461350	0.434434	2.804861	-3.461350	0.302219	2.804861	-2.850524	0.245551	2.352420	-2.646915	0.151096	1.786925	-2.443306	1.888808	13.049747	-18.118580	0.000000	0.000000	16.650159	0.493007	11.742280	21.707074	-15.766510	-13.009276	63.696419	69.603618	0.470487	-20.444181	7.396534	-12.356501	-13.027814	88.872142	79.409880	-8.511866	26.656877
2.421053	-3.827163	-0.891672	87.459204	0.242329	0.934999	0.596179	4.371997	-6.542986	1.690528	19.559782	0.341383	38.790537	-2.413163	0.000000	-1.015728	6.938017	10.030928	7.519431	0.131239	32.094566	-12.086166	0.000000	0.270560	1.134691	-3.283841	0.502456	1.509139	-3.489081	0.444502	2.758887	-3.489081	0.309223	2.758887	-2.873361	0.251242	2.313862	-2.668121	0.154598	1.757636	-2.462881	1.932581	12.835849	-18.263738	0.000000	0.000000	16.682980	0.108216	11.685616	22.027082	-15.067013	-13.894932	64.866811	69.906737	1.244067	-21.372573	7.690583	-12.353626	-14.071876	90.147468	80.244616	-8.912952	26.657832
